# xmcd CD database file
#
# Track frame offsets:
#	150
#	14819
#	28369
#	39892
#	55419
#	89094
#	96587
#	109280
#	121323
#	132378
#	144889
#	159662
#	172380
#	186633
#	198103
#
# Disc length: 2815 seconds
#
# Revision: 0
# Processed by: cddbd v1.5.2PL0 Copyright (c) Steve Scherf et al.
# Submitted via: CDex 1.51
#
DISCID=e90afd0f
DTITLE=Ray Charles - Juke Box Hits cd4
DYEAR=2006
DGENRE=Blues
TTITLE0=Eleanor Rigby
TTITLE1=In the Midnight Hour
TTITLE2=Let the Good Times Roll
TTITLE3=I Won't Leave till I get what I Come For
TTITLE4=Georgia on my Mind
TTITLE5=Jammin' the Blues
TTITLE6=Alone in the City
TTITLE7=Mess Around
TTITLE8=I'll do Anything but Work
TTITLE9=Rockin' Chair Blues
TTITLE10=I'm Wondering and Wondering
TTITLE11=The Snow is Falling
TTITLE12=Kissa Me Baby
TTITLE13=What Have I Done
TTITLE14=Lonely Boy (I'm just a)
EXTD=YEAR: 2006
EXTT0=
EXTT1=
EXTT2=
EXTT3=
EXTT4=
EXTT5=
EXTT6=
EXTT7=
EXTT8=
EXTT9=
EXTT10=
EXTT11=
EXTT12=
EXTT13=
EXTT14=
PLAYORDER=
